# xmcd
#
# Track frame offsets: 
#        150
#        18856
#        40903
#        55964
#        72209
#        89382
#        111365
#        124060
#        143053
#        160695
#        181563
#        195675
#
# Disc length: 2736 seconds
#
# Revision: 0
# Processed by: cddbd v1.5.2PL0 Copyright (c) Steve Scherf et al.
# Submitted via: ExactAudioCopy v1.1
#
DISCID=9a0aae0c
DTITLE=Milkdrive - Places you've not been
DYEAR=2015
DGENRE=Bluegrass
TTITLE0=Take too long
TTITLE1=Orion's Waltz
TTITLE2=As they go
TTITLE3=John Paul
TTITLE4=Hall of stone
TTITLE5=Camp Schnool
TTITLE6=The Water
TTITLE7=Bad Girl
TTITLE8=Delephine
TTITLE9=Soho
TTITLE10=Bones
TTITLE11=Ode to Alice
EXTD=
EXTT0=
EXTT1=
EXTT2=
EXTT3=
EXTT4=
EXTT5=
EXTT6=
EXTT7=
EXTT8=
EXTT9=
EXTT10=
EXTT11=
PLAYORDER=
